<svg width="512" height="512" viewBox="0 0 512 512" fill="none" xmlns="http://www.w3.org/2000/svg">
  <defs>
    <linearGradient id="bgGrad" x1="0" y1="0" x2="512" y2="512" gradientUnits="userSpaceOnUse">
      <stop offset="0%" stop-color="#0F172A"/>
      <stop offset="100%" stop-color="#020617"/>
    </linearGradient>
    <linearGradient id="accentGrad" x1="100" y1="80" x2="400" y2="300" gradientUnits="userSpaceOnUse">
      <stop offset="0%" stop-color="#10B981"/>
      <stop offset="100%" stop-color="#06B6D4"/>
    </linearGradient>
  </defs>
  <rect width="512" height="512" rx="96" fill="url(#bgGrad)"/>
  <path d="M256 50 L380 95 V195 C380 275 325 345 256 365 C187 345 132 275 132 195 V95 L256 50 Z"
        fill="none" stroke="url(#accentGrad)" stroke-width="12" stroke-linejoin="round" opacity="0.4"/>
  <path d="M256 95 L340 160 V260 H172 V160 L256 95 Z"
        fill="none" stroke="url(#accentGrad)" stroke-width="14" stroke-linejoin="round"/>
  <g stroke="url(#accentGrad)" stroke-width="10" stroke-linecap="round" stroke-linejoin="round" fill="none">
    <circle cx="210" cy="225" r="22"/>
    <circle cx="302" cy="225" r="22"/>
    <path d="M210 225 L235 195 H265 L280 225"/>
    <path d="M235 195 L250 225 H302"/>
    <path d="M260 185 L272 195"/>
  </g>
  <circle cx="335" cy="115" r="28" fill="#10B981"/>
  <rect x="330" y="99" width="10" height="32" rx="3" fill="#020617"/>
  <rect x="319" y="110" width="32" height="10" rx="3" fill="#020617"/>
  <text x="256" y="420"
        text-anchor="middle"
        fill="#FFFFFF"
        font-family="-apple-system, BlinkMacSystemFont, 'Segoe UI', Roboto, sans-serif"
        font-weight="800"
        font-size="34"
        letter-spacing="2">ASSET DOCTOR</text>
  <text x="256" y="450"
        text-anchor="middle"
        fill="#06B6D4"
        font-family="-apple-system, BlinkMacSystemFont, 'Segoe UI', Roboto, sans-serif"
        font-weight="600"
        font-size="15"
        letter-spacing="3">VEHICLE &amp; HOME VAULT</text>
</svg>
